<?xml version="1.0" encoding="utf-8"?>
<!-- Generator: Adobe Illustrator 27.5.0, SVG Export Plug-In . SVG Version: 6.00 Build 0)  -->
<svg version="1.1" xmlns="http://www.w3.org/2000/svg" xmlns:xlink="http://www.w3.org/1999/xlink" x="0px" y="0px"
	 viewBox="0 0 500 500" style="enable-background:new 0 0 500 500;" xml:space="preserve">
<g id="Background_Complete">
	<g>
		<rect y="382.398" style="fill:#EBEBEB;" width="500" height="0.25"/>
		<rect x="52.459" y="389.208" style="fill:#EBEBEB;" width="37.041" height="0.25"/>
		<rect x="169" y="394.619" style="fill:#EBEBEB;" width="71" height="0.25"/>
		<rect x="94.915" y="389.333" style="fill:#EBEBEB;" width="50.751" height="0.25"/>
		<rect x="406.778" y="396.814" style="fill:#EBEBEB;" width="48.667" height="0.25"/>
		<rect x="370.36" y="396.814" style="fill:#EBEBEB;" width="31.971" height="0.25"/>
		<rect x="277.213" y="392.592" style="fill:#EBEBEB;" width="62.009" height="0.25"/>
		<path style="fill:#EBEBEB;" d="M237.014,337.8H43.915c-3.147,0-5.708-2.561-5.708-5.708V60.66c0-3.147,2.561-5.708,5.708-5.708
			h193.099c3.146,0,5.707,2.561,5.707,5.708v271.432C242.721,335.239,240.16,337.8,237.014,337.8z M43.915,55.203
			c-3.01,0-5.458,2.448-5.458,5.458v271.432c0,3.01,2.448,5.458,5.458,5.458h193.099c3.009,0,5.457-2.448,5.457-5.458V60.66
			c0-3.009-2.448-5.458-5.457-5.458H43.915z"/>
		<path style="fill:#EBEBEB;" d="M453.31,337.8H260.212c-3.147,0-5.707-2.561-5.707-5.708V60.66c0-3.147,2.561-5.708,5.707-5.708
			H453.31c3.148,0,5.708,2.561,5.708,5.708v271.432C459.019,335.239,456.458,337.8,453.31,337.8z M260.212,55.203
			c-3.009,0-5.457,2.448-5.457,5.458v271.432c0,3.01,2.448,5.458,5.457,5.458H453.31c3.01,0,5.458-2.448,5.458-5.458V60.66
			c0-3.009-2.448-5.458-5.458-5.458H260.212z"/>
	</g>
	<g>
		<g>
			<g>
				<path style="fill:#F0F0F0;" d="M357.598,281.801h78.022v97.52h-78.022c-7.546,0-13.72-6.174-13.72-13.72v-70.08
					C343.878,287.975,350.052,281.801,357.598,281.801z"/>
				<path style="fill:#F5F5F5;" d="M434.974,281.801h1.292c7.546,0,13.72,6.174,13.72,13.72v70.08c0,7.546-6.174,13.72-13.72,13.72
					h-1.292c-7.546,0-13.72-6.174-13.72-13.72v-70.08C421.253,287.975,427.427,281.801,434.974,281.801z"/>
			</g>
			<rect x="254.25" y="317.771" style="fill:#F0F0F0;" width="170.923" height="61.55"/>
			<path style="fill:#E0E0E0;" d="M433.537,382.398h-252.62c-1.554,0-2.813-1.26-2.813-2.813v-0.264h179.455l78.792,0.264
				C436.35,381.139,435.091,382.398,433.537,382.398z"/>
			<path style="fill:#E0E0E0;" d="M361.076,241.339H197.237c-10.567,0-19.134,8.566-19.134,19.134v71.214H380.21v-71.214
				C380.21,249.906,371.643,241.339,361.076,241.339z"/>
			<path style="fill:#F5F5F5;" d="M376.043,241.339H210.361c-10.058,0-18.212,8.154-18.212,18.212v72.136h202.106v-72.136
				C394.255,249.493,386.102,241.339,376.043,241.339z"/>
			<path style="fill:#E0E0E0;" d="M417.011,312.151H267.26c-4.771,0-8.639,3.868-8.639,8.639v7.789c0,4.771,3.868,8.639,8.639,8.639
				h149.752c6.922,0,12.533-5.611,12.533-12.533l0,0C429.544,317.763,423.933,312.151,417.011,312.151z"/>
			<path style="fill:#F0F0F0;" d="M175.785,281.801h78.022v97.52h-78.022c-7.546,0-13.72-6.174-13.72-13.72v-70.08
				C162.064,287.975,168.238,281.801,175.785,281.801z"/>
			<path style="fill:#F5F5F5;" d="M253.16,281.801h1.292c7.546,0,13.72,6.174,13.72,13.72v70.08c0,7.546-6.174,13.72-13.72,13.72
				h-1.292c-7.546,0-13.72-6.174-13.72-13.72v-70.08C239.44,287.975,245.614,281.801,253.16,281.801z"/>
		</g>
		<g>
			<g>
				<g>
					<rect x="330.429" y="92.515" style="fill:#E0E0E0;" width="70.626" height="103.861"/>
					<rect x="332.357" y="92.515" style="fill:#F5F5F5;" width="72.952" height="103.861"/>
					
						<rect x="325.087" y="114.081" transform="matrix(6.123234e-17 -1 1 6.123234e-17 224.3873 513.2787)" style="fill:#FFFFFF;" width="87.491" height="60.729"/>
					<path style="fill:#F5F5F5;" d="M361.275,148.673v6.661l0,0c8.348,0,15.116-6.768,15.116-15.116v-6.661l0,0
						C368.043,133.557,361.275,140.325,361.275,148.673z"/>
					<path style="fill:#F5F5F5;" d="M361.275,126.21v6.661l0,0c8.348,0,15.116-6.768,15.116-15.116v-6.661l0,0
						C368.043,111.094,361.275,117.862,361.275,126.21z"/>
					<path style="fill:#F5F5F5;" d="M361.275,171.136v6.661l0,0c8.348,0,15.116-6.768,15.116-15.116v-6.661l0,0
						C368.043,156.02,361.275,162.788,361.275,171.136z"/>
				</g>
			</g>
		</g>
		<g>
			
				<rect x="144.189" y="22.012" transform="matrix(-1.836970e-16 1 -1 -1.836970e-16 318.174 -43.4895)" style="fill:#EBEBEB;" width="73.285" height="230.661"/>
			
				<rect x="28.164" y="136.647" transform="matrix(-1.836970e-16 1 -1 -1.836970e-16 202.1484 72.5361)" style="fill:#E0E0E0;" width="73.285" height="1.39"/>
			<rect x="76.873" y="112.072" style="fill:#F5F5F5;" width="207.918" height="50.541"/>
			<polygon style="fill:#FFFFFF;" points="126.697,162.613 109.43,162.613 122.95,112.072 140.217,112.072 			"/>
			<polygon style="fill:#FFFFFF;" points="142.758,162.613 132.773,162.613 146.293,112.072 156.278,112.072 			"/>
			<polygon style="fill:#FFFFFF;" points="229.688,162.613 219.703,162.613 233.223,112.072 243.208,112.072 			"/>
		</g>
		<g>
			<g>
				<polygon style="fill:#E6E6E6;" points="155.323,298.592 99.406,298.592 92.492,222.629 148.409,222.629 				"/>
				<polygon style="fill:#F0F0F0;" points="158.219,298.592 102.302,298.592 95.388,222.629 151.306,222.629 				"/>
				<polygon style="fill:#FFFFFF;" points="109.945,290.183 104.562,231.038 143.661,231.038 149.044,290.183 				"/>
			</g>
			<g>
				<rect x="189.699" y="298.592" style="fill:#E6E6E6;" width="7.528" height="83.805"/>
				<rect x="194.375" y="298.592" style="fill:#F5F5F5;" width="5.228" height="83.805"/>
				
					<rect x="121.761" y="298.592" transform="matrix(-1 -1.224647e-16 1.224647e-16 -1 322.9834 606.4332)" style="fill:#F5F5F5;" width="79.461" height="9.25"/>
				<rect x="110.863" y="307.841" style="fill:#E6E6E6;" width="7.528" height="74.555"/>
				<rect x="115.538" y="307.841" style="fill:#F5F5F5;" width="5.228" height="74.555"/>
				<rect x="63.222" y="307.841" style="fill:#E6E6E6;" width="7.528" height="74.555"/>
				<rect x="67.898" y="307.841" style="fill:#F5F5F5;" width="5.228" height="74.555"/>
				<rect x="142.059" y="307.841" style="fill:#E6E6E6;" width="7.528" height="74.555"/>
				<rect x="146.734" y="307.841" style="fill:#F5F5F5;" width="5.228" height="74.555"/>
				<rect x="63.222" y="298.592" style="fill:#E6E6E6;" width="58.539" height="9.25"/>
			</g>
		</g>
	</g>
</g>
<g id="Background_Simple" style="display:none;">
	<g style="display:inline;">
		<path style="fill:#407BFF;" d="M268.717,145.557c-54.643,56.866-179.145,4.729-182.542,115.836
			c-3.255,106.456,135.572,101.132,204.702,78.405c80.15-26.35,143.704-99.562,118.593-186.601
			c-9.698-33.614-31.447-66.264-68.591-71.92C281.534,72.24,297.681,115.415,268.717,145.557z"/>
		<path style="opacity:0.9;fill:#FFFFFF;" d="M268.717,145.557c-54.643,56.866-179.145,4.729-182.542,115.836
			c-3.255,106.456,135.572,101.132,204.702,78.405c80.15-26.35,143.704-99.562,118.593-186.601
			c-9.698-33.614-31.447-66.264-68.591-71.92C281.534,72.24,297.681,115.415,268.717,145.557z"/>
	</g>
</g>
<g id="Shadow_1_">
	<ellipse id="_x3C_Path_x3E__103_" style="fill:#F5F5F5;" cx="250" cy="416.238" rx="193.889" ry="11.323"/>
</g>
<g id="Character_1_">
	<g>
		<path style="fill:#263238;" d="M328.358,135.98c-3.819-2.394-14.789-0.021-12.965,12.035c1.824,12.056-12.313,8.921-9.234,22.886
			c3.078,13.966,28.072,34.699,43.463,20.619c15.391-14.08,2.423-20.293,2.709-37.002C352.5,144.582,347.995,126.802,328.358,135.98
			z"/>
		<path style="fill:#263238;" d="M351.037,190.908c-0.066,0-0.132-0.025-0.182-0.076c-0.1-0.1-0.099-0.263,0.001-0.363
			c9.484-9.421,7.293-15.159,4.52-22.422c-1.533-4.013-3.269-8.562-3.411-14.472c-0.153-6.372-2.484-15.085-8.551-18.674
			c-4.303-2.545-9.819-2.106-16.399,1.306c-0.127,0.064-0.28,0.016-0.346-0.11c-0.065-0.126-0.016-0.281,0.11-0.346
			c6.747-3.498,12.433-3.933,16.897-1.292c6.247,3.696,8.647,12.601,8.803,19.103c0.14,5.822,1.86,10.327,3.377,14.301
			c2.84,7.438,5.083,13.313-4.638,22.969C351.167,190.883,351.102,190.908,351.037,190.908z"/>
		<path style="fill:#FFC3BD;" d="M353.219,189.545c-0.013-0.033,0.157,0.23,0.267,0.377l0.407,0.539
			c0.291,0.372,0.596,0.744,0.927,1.114c0.657,0.737,1.375,1.453,2.139,2.136c1.505,1.392,3.174,2.668,4.957,3.81
			c1.803,1.112,3.654,2.197,5.628,3.094c0.965,0.489,1.989,0.874,2.983,1.321c0.19,0.085,0.021,0.033-0.123,0.081
			c-0.159,0.038-0.241,0.146-0.133,0.085c0.214-0.099,0.744-0.739,1.142-1.528c0.421-0.796,0.785-1.747,1.127-2.734
			c0.677-1.992,1.169-4.166,1.63-6.363c0.451-2.204,0.801-4.458,1.11-6.725c0.342-2.258,0.59-4.572,0.84-6.819l4.066,0.022
			c0.337,4.799,0.309,9.521-0.101,14.36c-0.196,2.42-0.544,4.848-1.131,7.35c-0.299,1.255-0.687,2.52-1.246,3.842
			c-0.592,1.309-1.274,2.736-2.852,4.153c-0.779,0.693-1.942,1.341-3.253,1.572c-1.297,0.255-2.659,0.016-3.559-0.307
			c-1.173-0.417-2.366-0.773-3.526-1.25c-2.331-0.91-4.613-2.013-6.815-3.291c-2.19-1.306-4.296-2.801-6.272-4.517
			c-0.978-0.869-1.911-1.808-2.805-2.813c-0.446-0.501-0.881-1.032-1.305-1.581l-0.619-0.879c-0.219-0.335-0.374-0.557-0.677-1.096
			L353.219,189.545z"/>
		<g>
			<path style="fill:#263238;" d="M351.849,185.836c9.353,5.969,8.59,9.648,8.59,9.648l-5.875,8.508c0,0-14.984-6.013-15.931-10.713
				C337.647,188.384,347.314,182.941,351.849,185.836z"/>
			<path style="opacity:0.1;fill:#FFFFFF;" d="M351.849,185.836c9.353,5.969,8.59,9.648,8.59,9.648l-5.875,8.508
				c0,0-14.984-6.013-15.931-10.713C337.647,188.384,347.314,182.941,351.849,185.836z"/>
		</g>
		<path style="fill:#407BFF;" d="M360.951,194.643L360.951,194.643c0.363,0.254,0.452,0.754,0.198,1.117l-6.018,8.614
			c-0.254,0.363-0.754,0.452-1.117,0.198l0,0c-0.363-0.254-0.452-0.754-0.198-1.117l6.018-8.614
			C360.088,194.478,360.588,194.389,360.951,194.643z"/>
		<path style="fill:#FFC3BD;" d="M376.831,179.893l-4.638-6.199l8.898-2.296c0,0,1.811,5.524-1.148,9.568L376.831,179.893z"/>
		<polygon style="fill:#FFC3BD;" points="372.437,166.074 379.848,164.823 381.091,171.398 372.193,173.694 		"/>
		<polygon style="fill:#FFC3BD;" points="297.041,407.596 305.525,408.415 311.585,388.483 303.102,387.664 		"/>
		<polygon style="fill:#FFC3BD;" points="243.095,378.129 249.385,384.034 262.963,369.111 256.674,363.206 		"/>
		<path style="fill:#263238;" d="M252.288,381.202l-4.727-8.516c-0.172-0.31-0.527-0.442-0.854-0.318l-7.276,2.769
			c-0.755,0.287-1.083,1.255-0.673,1.963c1.699,2.941,2.667,4.275,4.746,8.02c1.279,2.304,3.769,7.588,5.535,10.77
			c1.727,3.112,5.006,1.605,4.556,0.122c-2.02-6.649-1.64-10.351-1.07-13.285C252.628,382.198,252.54,381.655,252.288,381.202z"/>
		<path style="fill:#263238;" d="M306.527,405.827l-10.285,0c-0.374,0-0.712,0.26-0.812,0.625l-2.236,8.137
			c-0.232,0.844,0.389,1.62,1.255,1.628c3.624,0.033,5.342,0.017,9.865,0.017c2.783,0,9.981,0,13.823,0
			c3.758,0,4.544-3.799,2.989-4.143c-6.972-1.543-10.991-3.671-13.143-5.701C307.596,406.024,307.075,405.827,306.527,405.827z"/>
		<polygon style="opacity:0.2;" points="311.582,388.488 308.459,398.762 299.724,398.762 303.095,387.669 		"/>
		<polygon style="opacity:0.2;" points="256.668,363.208 262.961,369.116 255.958,376.806 249.666,370.898 		"/>
		<g>
			<path style="fill:#263238;" d="M351.849,185.836c0,0,3.398,2.316-18.147,49.134c-13.465-3.728-27.381-7.58-33.933-9.394
				c4.393-13.653,6.766-22.165,8.012-52.334c0,0,7.538,0.422,14.935,2.091c5.786,1.305,10.515,2.418,15.408,4.266
				C344.575,182.034,351.849,185.836,351.849,185.836z"/>
			<path style="opacity:0.1;fill:#FFFFFF;" d="M351.849,185.836c0,0,3.398,2.316-18.147,49.134
				c-13.465-3.728-27.381-7.58-33.933-9.394c4.393-13.653,6.766-22.165,8.012-52.334c0,0,7.538,0.422,14.935,2.091
				c5.786,1.305,10.515,2.418,15.408,4.266C344.575,182.034,351.849,185.836,351.849,185.836z"/>
		</g>
		<path style="fill:#FFC3BD;" d="M329.046,158.404c-0.401,5.227-1.945,14.579-6.33,16.927c0,0-2.549,8.672,8.518,11.856
			c9.363,2.693,6.89-7.59,6.89-7.59c-5.163-2.851-1.972-7.901-1.028-13.554L329.046,158.404z"/>
		<path style="opacity:0.2;" d="M329.042,158.407c-0.318,4.196-1.375,11.071-4.063,14.816c3.119,0.308,8.044-0.647,9.439-2.965
			c0.369-0.595,1.098-2.883,1.734-5.11L329.042,158.407z"/>
		<path style="fill:#FFC3BD;" d="M342.77,150.831c-0.023,8.604,0.15,12.246-3.921,16.901c-6.125,7.001-16.688,5.091-19.235-3.347
			c-2.293-7.595-1.87-20.389,6.322-24.293C334.006,136.245,342.794,142.227,342.77,150.831z"/>
		<path style="fill:#263238;" d="M324.979,146.061c4.83,6.747,21.077,16.13,22.167,7.089c1.09-9.041-7.21-17.973-15.425-17.112
			C323.506,136.899,320.869,140.319,324.979,146.061z"/>
		<path style="fill:#FFC3BD;" d="M346.333,158.864c-0.775,1.607-2.219,2.706-3.611,3.167c-2.093,0.694-3.244-1.153-2.749-3.183
			c0.445-1.827,2.07-4.39,4.213-4.202C346.297,154.83,347.219,157.027,346.333,158.864z"/>
		<path style="fill:#407BFF;" d="M333.702,234.969c0,0,12.079,48.931,4.156,85.945c-5.306,24.79-24.443,74.869-24.443,74.869
			l-14.962-0.385c0,0,14.486-52.554,17.481-73.222c5.123-35.354-7.081-94.087-7.081-94.087L333.702,234.969z"/>
		<path style="opacity:0.2;" d="M320.227,242l-7.481,11.799c1.903,12.235,3.797,27.538,4.28,42.264
			C327.547,277.228,322.566,251.972,320.227,242z"/>
		<polygon style="fill:#263238;" points="316.089,396.559 297.041,396.087 298.316,389.313 317.483,390.749 		"/>
		<path style="fill:#407BFF;" d="M326.264,233.018c0,0-6.984,53.5-22.076,83.898c-12.19,24.552-44.72,59.504-44.72,59.504
			l-8.317-8.568c0,0,21.972-37.985,31.032-54.294c22.215-39.992,2.523-75.847,17.586-87.982L326.264,233.018z"/>
		<polygon style="fill:#263238;" points="260.31,377.566 249.577,367.104 253.138,362.259 264.836,374.352 		"/>
		<g>
			<path style="fill:#407BFF;" d="M299.812,223.443l-2.371,2.614c-0.184,0.203,0.029,0.52,0.421,0.629l35.587,9.852
				c0.306,0.085,0.601,0.005,0.673-0.182l1.147-2.953c0.079-0.205-0.137-0.456-0.471-0.549l-34.362-9.513
				C300.183,223.272,299.931,223.313,299.812,223.443z"/>
			<path style="opacity:0.5;fill:#FFFFFF;" d="M299.812,223.443l-2.371,2.614c-0.184,0.203,0.029,0.52,0.421,0.629l35.587,9.852
				c0.306,0.085,0.601,0.005,0.673-0.182l1.147-2.953c0.079-0.205-0.137-0.456-0.471-0.549l-34.362-9.513
				C300.183,223.272,299.931,223.313,299.812,223.443z"/>
		</g>
		<path style="fill:#407BFF;" d="M303.363,228.563l-0.92-0.255c-0.183-0.051-0.297-0.184-0.252-0.296l1.524-3.827
			c0.045-0.112,0.231-0.162,0.414-0.111l0.92,0.255c0.183,0.051,0.297,0.184,0.252,0.296l-1.524,3.827
			C303.733,228.564,303.547,228.614,303.363,228.563z"/>
		<path style="fill:#407BFF;" d="M330.771,236.151l-0.92-0.255c-0.183-0.051-0.297-0.184-0.252-0.296l1.524-3.827
			c0.045-0.112,0.231-0.162,0.414-0.111l0.92,0.255c0.183,0.051,0.297,0.184,0.252,0.296l-1.524,3.827
			C331.141,236.151,330.954,236.201,330.771,236.151z"/>
		<path style="fill:#407BFF;" d="M317.067,232.357l-0.92-0.255c-0.183-0.051-0.297-0.184-0.252-0.296l1.524-3.827
			c0.045-0.112,0.231-0.162,0.414-0.111l0.92,0.255c0.183,0.051,0.297,0.184,0.252,0.296l-1.524,3.827
			C317.437,232.358,317.25,232.408,317.067,232.357z"/>
		<path style="fill:#263238;" d="M329.907,153.99c0.041,0.698-0.296,1.286-0.752,1.312c-0.456,0.027-0.859-0.517-0.9-1.215
			c-0.041-0.698,0.296-1.286,0.752-1.312C329.463,152.748,329.866,153.292,329.907,153.99z"/>
		<path style="fill:#263238;" d="M322.017,154.453c0.041,0.698-0.296,1.286-0.752,1.312c-0.456,0.027-0.859-0.517-0.9-1.215
			c-0.041-0.698,0.296-1.286,0.752-1.312C321.573,153.211,321.976,153.755,322.017,154.453z"/>
		<path style="fill:#263238;" d="M321.32,153.264l-1.705-0.385C319.615,152.88,320.552,154.139,321.32,153.264z"/>
		<path style="fill:#ED847E;" d="M324.173,155.53c0,0-1.008,3.075-2.227,4.601c0.972,0.806,2.516,0.321,2.516,0.321L324.173,155.53z
			"/>
		<path style="fill:#263238;" d="M328.351,162.826c-0.387,0.1-0.811,0.17-1.273,0.197c-0.094,0.006-0.175-0.066-0.181-0.16
			c-0.005-0.094,0.067-0.177,0.16-0.18c3.077-0.18,4.397-2.421,4.41-2.444c0.047-0.081,0.151-0.11,0.233-0.063
			c0.082,0.047,0.111,0.151,0.064,0.233C331.715,160.493,330.703,162.218,328.351,162.826z"/>
		<path style="fill:#263238;" d="M332.525,148.889c-0.112,0.029-0.236,0-0.324-0.087c-1.325-1.296-2.807-0.997-2.87-0.984
			c-0.184,0.039-0.365-0.077-0.406-0.261c-0.04-0.184,0.074-0.363,0.259-0.406c0.077-0.017,1.897-0.4,3.494,1.162
			c0.135,0.132,0.137,0.348,0.005,0.483C332.638,148.843,332.583,148.874,332.525,148.889z"/>
		<path style="fill:#263238;" d="M318.577,149.902c-0.109,0.049-0.241,0.039-0.344-0.037c-0.151-0.112-0.183-0.326-0.071-0.477
			c1.331-1.796,3.188-1.705,3.267-1.7c0.188,0.011,0.33,0.172,0.32,0.36c-0.011,0.187-0.171,0.331-0.359,0.322
			c-0.064-0.004-1.574-0.064-2.678,1.425C318.675,149.842,318.629,149.879,318.577,149.902z"/>
		<path style="fill:#FFC3BD;" d="M308.572,186.131c-0.873,1.317-1.665,2.374-2.548,3.495c-0.871,1.096-1.762,2.168-2.681,3.217
			c-1.846,2.088-3.815,4.063-5.883,5.94c-2.062,1.884-4.229,3.665-6.541,5.273c-1.125,0.839-2.339,1.573-3.524,2.334l-1.842,1.057
			l-0.923,0.523c-0.337,0.178-0.778,0.417-1.203,0.59c-1.689,0.76-3.862,1.154-5.921,0.777c-2.066-0.355-3.805-1.347-5.139-2.438
			c-1.356-1.099-2.372-2.342-3.256-3.585c-0.875-1.253-1.621-2.52-2.251-3.816c-2.503-5.192-3.967-10.415-4.891-15.887l3.961-0.918
			c0.827,2.378,1.758,4.841,2.807,7.159c1.019,2.34,2.16,4.611,3.471,6.662c1.286,2.033,2.791,3.934,4.324,4.975
			c0.756,0.525,1.456,0.781,2.025,0.814c0.57,0.028,1.117-0.08,1.824-0.445c0.185-0.087,0.322-0.18,0.562-0.325l0.778-0.507
			l1.552-1.018c0.999-0.744,2.03-1.426,2.998-2.22c1.974-1.517,3.84-3.198,5.663-4.922c1.822-1.727,3.539-3.578,5.187-5.48
			c0.831-0.945,1.636-1.911,2.418-2.89c0.753-0.964,1.566-2.021,2.187-2.896L308.572,186.131z"/>
		<path style="fill:#FFC3BD;" d="M266.77,186.375l0.877-9.329l-8.384,3.432c0,0,1.002,4.692,4.192,6.367L266.77,186.375z"/>
		<polygon style="fill:#FFC3BD;" points="264.969,172.014 258.479,170.6 259.263,180.478 267.648,177.046 		"/>
		<g>
			<path style="fill:#263238;" d="M307.781,173.241c-4.366-0.038-14.896,16.683-14.896,16.683l7.439,7.695
				c0,0,13.973-9.441,14.545-15.034C315.354,177.837,313.343,173.29,307.781,173.241z"/>
			<path style="opacity:0.1;fill:#FFFFFF;" d="M307.781,173.241c-4.366-0.038-14.896,16.683-14.896,16.683l7.439,7.695
				c0,0,13.973-9.441,14.545-15.034C315.354,177.837,313.343,173.29,307.781,173.241z"/>
		</g>
		<path style="fill:#407BFF;" d="M301.011,197.958L301.011,197.958c-0.31,0.316-0.818,0.321-1.134,0.011l-7.503-7.356
			c-0.316-0.31-0.321-0.818-0.011-1.134l0,0c0.31-0.316,0.818-0.321,1.134-0.011l7.503,7.356
			C301.316,197.133,301.321,197.641,301.011,197.958z"/>
		<path style="fill:#407BFF;" d="M253.947,385.78c0.251,0,0.503-0.095,0.753-0.283c0.267-0.201,0.306-0.441,0.293-0.607
			c-0.089-1.085-2.837-2.554-3.15-2.718c-0.06-0.032-0.133-0.024-0.187,0.019c-0.053,0.043-0.075,0.113-0.057,0.179
			c0.311,1.104,0.985,3.007,2.014,3.354C253.723,385.761,253.835,385.78,253.947,385.78z M252.045,382.672
			c0.943,0.535,2.553,1.581,2.607,2.246c0.006,0.076-0.003,0.189-0.158,0.306c-0.269,0.202-0.521,0.259-0.772,0.176
			C253.137,385.203,252.521,384.195,252.045,382.672z"/>
		<path style="fill:#407BFF;" d="M254.371,383.101c0.518,0,0.973-0.088,1.233-0.309c0.138-0.117,0.342-0.383,0.156-0.843
			c-0.12-0.295-0.335-0.499-0.641-0.607c-1.172-0.415-3.347,0.78-3.439,0.831c-0.053,0.03-0.087,0.085-0.088,0.146
			c-0.001,0.061,0.03,0.118,0.082,0.149C252.199,382.79,253.396,383.101,254.371,383.101z M254.537,381.595
			c0.171,0,0.33,0.021,0.469,0.07c0.213,0.075,0.356,0.21,0.438,0.413c0.108,0.266,0.024,0.382-0.061,0.454
			c-0.509,0.431-2.314,0.187-3.245-0.21C252.65,382.071,253.728,381.595,254.537,381.595z"/>
		<path style="fill:#407BFF;" d="M311.091,407.491c0.788,0,1.52-0.122,1.986-0.474c0.314-0.237,0.485-0.561,0.508-0.962
			c0.016-0.29-0.123-0.447-0.243-0.528c-0.936-0.636-4.671,1.088-5.094,1.287c-0.066,0.031-0.105,0.101-0.097,0.173
			c0.008,0.072,0.061,0.132,0.133,0.148C309.028,407.3,310.103,407.491,311.091,407.491z M312.733,405.719
			c0.182,0,0.325,0.028,0.417,0.09c0.048,0.032,0.101,0.087,0.093,0.227c-0.017,0.3-0.139,0.532-0.373,0.709
			c-0.843,0.637-2.892,0.369-4.001,0.161C310.148,406.343,311.873,405.719,312.733,405.719z"/>
		<path style="fill:#407BFF;" d="M308.32,407.139c0.022,0,0.044-0.005,0.065-0.013c1.123-0.46,3.476-2.348,3.349-3.285
			c-0.027-0.2-0.166-0.452-0.673-0.513c-2.013-0.232-2.872,3.445-2.907,3.602c-0.014,0.062,0.007,0.127,0.056,0.168
			C308.241,407.125,308.28,407.139,308.32,407.139z M310.878,403.658c0.047,0,0.094,0.003,0.142,0.009
			c0.351,0.042,0.369,0.176,0.375,0.219c0.081,0.599-1.6,2.134-2.815,2.771C308.831,405.799,309.586,403.658,310.878,403.658z"/>
		<path style="fill:#263238;" d="M329.211,152.801l-1.705-0.385C327.506,152.417,328.443,153.676,329.211,152.801z"/>
	</g>
</g>
<g id="Smartphone">
	<g>
		<g>
			<path style="fill:#407BFF;" d="M152.507,411.707l113.098-9.883c7.65-0.668,13.362-7.474,12.693-15.124l-23.574-269.787
				c-0.668-7.65-7.474-13.362-15.124-12.693l-113.098,9.882c-7.65,0.668-13.362,7.474-12.693,15.124l23.574,269.787
				C138.051,406.663,144.857,412.375,152.507,411.707z"/>
			<path style="fill:#407BFF;" d="M122.302,208.886L122.302,208.886c2.177-0.19,3.803-2.127,3.613-4.305l-3.113-35.626
				c-0.19-2.177-2.127-3.803-4.305-3.613l0,0c-2.177,0.19-3.803,2.127-3.613,4.305l3.113,35.626
				C118.188,207.45,120.125,209.076,122.302,208.886z"/>
			<path style="fill:#263238;" d="M260.424,180.771l1.391-0.122c1.616-0.141,2.822-1.579,2.681-3.194l-1.9-21.744
				c-0.141-1.616-1.579-2.822-3.194-2.681l-1.39,0.121c-1.616,0.141-2.822,1.579-2.681,3.194l1.9,21.745
				C257.371,179.706,258.808,180.913,260.424,180.771z"/>
			<path style="fill:#263238;" d="M263.615,217.289l1.391-0.122c1.616-0.141,2.822-1.579,2.681-3.194l-1.9-21.744
				c-0.141-1.616-1.578-2.822-3.194-2.681l-1.391,0.121c-1.616,0.141-2.822,1.579-2.681,3.194l1.9,21.745
				C260.562,216.223,261.999,217.43,263.615,217.289z"/>
			<path style="fill:#263238;" d="M154.886,411.499l113.098-9.883c7.65-0.668,13.362-7.474,12.693-15.124l-23.574-269.787
				c-0.668-7.65-7.474-13.362-15.124-12.693l-113.098,9.882c-7.65,0.668-13.362,7.474-12.693,15.124l23.574,269.788
				C140.43,406.455,147.236,412.167,154.886,411.499z"/>
			<path style="opacity:0.4;fill:#407BFF;" d="M143.752,394.684l132.28-11.559c1.438-0.126,2.502-1.393,2.376-2.831l-22.422-256.606
				c-0.126-1.438-1.393-2.502-2.831-2.376l-132.28,11.559c-1.438,0.126-2.502,1.393-2.376,2.831l22.422,256.607
				C141.046,393.746,142.314,394.81,143.752,394.684z"/>
			<polygon style="opacity:0.3;fill:#407BFF;" points="235.694,122.837 219.072,388.103 191.425,390.519 208.046,125.253 			"/>
			<path style="opacity:0.2;fill:#FFFFFF;" d="M200.13,114.317l-28.246,2.468c-0.652,0.057-1.139,0.637-1.082,1.289l0.1,1.148
				c0.057,0.652,0.637,1.139,1.289,1.082l28.246-2.468c0.652-0.057,1.139-0.637,1.082-1.289l-0.1-1.148
				C201.362,114.747,200.782,114.26,200.13,114.317z"/>
		</g>
		<g>
			<g>
				<path style="fill:#407BFF;" d="M173.797,217.117h137.609c7.424,0,13.498,6.074,13.498,13.498v67.492
					c0,7.424-6.074,13.499-13.498,13.499h-47.614l-21.19,21.19l-21.19-21.19h-47.614c-7.424,0-13.498-6.074-13.498-13.499v-67.492
					C160.299,223.191,166.373,217.117,173.797,217.117z"/>
				<path style="opacity:0.3;fill:#FFFFFF;" d="M173.797,217.117h137.609c7.424,0,13.498,6.074,13.498,13.498v67.492
					c0,7.424-6.074,13.499-13.498,13.499h-47.614l-21.19,21.19l-21.19-21.19h-47.614c-7.424,0-13.498-6.074-13.498-13.499v-67.492
					C160.299,223.191,166.373,217.117,173.797,217.117z"/>
			</g>
			<g>
				<path style="fill:#FFFFFF;" d="M182.622,240.509v47.704c0,3.882,3.105,7.057,6.901,7.057H295.68
					c3.796,0,6.901-3.176,6.901-7.057v-47.704c0-0.929-0.178-1.823-0.506-2.635c-1.024-2.588-3.508-4.423-6.395-4.423H189.523
					c-2.881,0-5.372,1.835-6.395,4.417C182.799,238.686,182.622,239.574,182.622,240.509z"/>
				<path style="opacity:0.1;" d="M183.128,237.868l51.322,22.353c5.21,2.269,11.099,2.269,16.309,0l51.316-22.348
					c-1.024-2.588-3.508-4.423-6.395-4.423H189.523C186.641,233.451,184.151,235.286,183.128,237.868z"/>
			</g>
			<g>
				
					<ellipse transform="matrix(0.7071 -0.7071 0.7071 0.7071 -107.701 186.2075)" style="fill:#DE5753;" cx="170.922" cy="223.11" rx="20.518" ry="20.518"/>
				<g>
					<path style="fill:#FFFFFF;" d="M174.875,235.623h-4.777v-18.004c-1.746,1.632-3.803,2.839-6.172,3.621v-4.335
						c1.247-0.408,2.601-1.182,4.064-2.321c1.462-1.139,2.465-2.468,3.009-3.987h3.877V235.623z"/>
				</g>
			</g>
		</g>
		<g>
			<path style="fill:#407BFF;" d="M286.367,95.917c-1.448,0-2.718-1.058-2.94-2.534c-2.823-18.755-20.375-31.717-39.133-28.896
				c-1.626,0.245-3.142-0.875-3.386-2.5c-0.245-1.626,0.875-3.142,2.501-3.387c22.004-3.311,42.595,11.896,45.905,33.896
				c0.245,1.626-0.875,3.142-2.501,3.386C286.664,95.907,286.514,95.917,286.367,95.917z"/>
			<path style="fill:#407BFF;" d="M271.584,98.142c-1.449,0-2.718-1.058-2.94-2.534c-1.596-10.604-11.522-17.932-22.125-16.337
				c-1.625,0.245-3.142-0.875-3.386-2.5c-0.245-1.626,0.875-3.142,2.5-3.386c13.85-2.084,26.814,7.488,28.898,21.338
				c0.245,1.626-0.875,3.142-2.5,3.386C271.881,98.131,271.732,98.142,271.584,98.142z"/>
			<path style="fill:#407BFF;" d="M256.801,100.367c-1.448,0-2.718-1.059-2.94-2.534c-0.179-1.188-0.809-2.235-1.776-2.949
				c-0.966-0.713-2.151-1.008-3.341-0.829c-1.625,0.245-3.142-0.875-3.386-2.501c-0.245-1.626,0.875-3.142,2.501-3.386
				c2.763-0.416,5.518,0.269,7.763,1.927c2.245,1.658,3.711,4.092,4.126,6.852c0.245,1.625-0.875,3.142-2.5,3.386
				C257.098,100.356,256.948,100.367,256.801,100.367z"/>
		</g>
	</g>
</g>
</svg>
